<svg xmlns="http://www.w3.org/2000/svg" xmlns:xlink="http://www.w3.org/1999/xlink"
  viewBox="0,0,256,256" width="22px" height="22px">
  <g fill="#828282">
    <g transform="scale(8,8)">
      <path
        d="M15.9375,4.03125c-3.0205,0.01225 -6.01958,0.39573 -7.58008,1.11523c0,0 -3.35742,1.52837 -3.35742,6.73437c0,6.197 -0.0045,13.97938 5.5625,15.48438c2.132,0.573 3.96545,0.69633 5.43945,0.61133c2.675,-0.151 3.99805,-0.9707 3.99805,-0.9707l-0.08984,-1.97656c0,0 -1.73386,0.61102 -3.88086,0.54102c-2.127,-0.075 -4.3678,-0.23462 -4.7168,-2.89062c-0.032,-0.247 -0.04787,-0.49709 -0.04687,-0.74609c4.507,1.119 8.3502,0.48738 9.4082,0.35938c2.954,-0.359 5.52552,-2.2113 5.85352,-3.9043c0.514,-2.668 0.4707,-6.50781 0.4707,-6.50781c0,-5.206 -3.35156,-6.73437 -3.35156,-6.73437c-1.6455,-0.7685 -4.68848,-1.12748 -7.70898,-1.11523zM12.70508,8.00195c1.03487,0.02775 2.0575,0.49075 2.6875,1.46875l0.60938,1.03516l0.60742,-1.03516c1.265,-1.967 4.10022,-1.84427 5.44922,-0.32227c1.244,1.448 0.9668,2.38256 0.9668,8.85156v0.00195h-2.44727v-5.62891c0,-2.635 -3.35937,-2.73677 -3.35937,0.36523v3.26172h-2.43164v-3.26172c0,-3.102 -3.35742,-3.00219 -3.35742,-0.36719v5.62891h-2.45313c0,-6.474 -0.2722,-7.41456 0.9668,-8.85156c0.6795,-0.766 1.72684,-1.17423 2.76172,-1.14648z"></path>
    </g>
  </g>
</svg>