<?xml version="1.0" encoding="UTF-8" standalone="no"?>
<!DOCTYPE svg PUBLIC "-//W3C//DTD SVG 1.0//EN" "http://www.w3.org/TR/2001/REC-SVG-20010904/DTD/svg10.dtd">
<!-- Created with Inkscape (http://www.inkscape.org/) by Steadfast-->
<svg
   xmlns:svg="http://www.w3.org/2000/svg"
   xmlns="http://www.w3.org/2000/svg"
   version="1.0"
   width="900"
   height="387"
   id="svg2574">
  <defs
     id="defs2576" />
  <g
     id="layer1">
    <g
       transform="matrix(6.2918274,0,0,6.2918274,-1685.5171,-1336.8611)"
       id="g2584">
      <path
         d="M 276.649,262.74518 C 278.80275,265.12768 281.34552,267.10937 284.27802,268.69312 C 288.75177,271.10937 293.73552,272.33812 299.23052,272.38187 C 303.31427,272.33937 307.28802,271.40187 311.15427,269.57187 C 314.77552,267.85687 317.847,265.58043 320.367,262.74418 L 316.888,262.74518 C 316.853,262.77393 316.81677,262.79937 316.78177,262.82437 C 314.08427,264.66437 311.25927,266.06437 308.30677,267.02437 C 305.35427,267.98562 302.22802,268.46812 298.93052,268.47437 C 294.70802,268.42437 290.97802,267.38937 287.73677,265.36937 C 286.49677,264.59562 285.358,263.71893 284.323,262.74518 L 276.649,262.74518 z M 333.778,262.74518 C 333.9605,262.93768 334.16052,263.12062 334.37677,263.29062 C 335.74677,264.36937 337.39427,264.91562 339.32052,264.92937 C 341.24427,264.91562 342.88177,264.36937 344.23427,263.29062 C 344.44677,263.12062 344.64475,262.93768 344.826,262.74518 L 333.778,262.74518 z M 397.90052,262.74562 C 398.07177,262.94937 398.26052,263.13812 398.46427,263.31312 C 399.70677,264.38062 401.30927,264.91937 403.27302,264.92937 C 404.63552,264.93062 405.87552,264.59562 406.99177,263.92187 C 407.51302,263.60687 407.95325,263.21393 408.312,262.74518 L 397.901,262.74518 M 269.826,248.29218 C 270.38975,252.10343 271.63802,255.55687 273.57302,258.65937 C 274.49052,260.13187 275.51525,261.49393 276.649,262.74518 L 284.323,262.74518 C 282.653,261.17768 281.24927,259.34687 280.11052,257.25437 C 278.62052,254.51812 277.72175,251.52968 277.413,248.29218 L 269.826,248.29218 z M 288.826,248.29187 L 287.32927,251.70562 C 287.07177,252.27562 286.82177,252.86312 286.57802,253.47062 C 286.33552,254.07812 286.20552,254.71187 286.18802,255.37187 C 286.20552,256.22812 286.48552,256.91937 287.02927,257.44562 C 287.57302,257.97062 288.27427,258.24187 289.13302,258.25687 C 290.26052,258.20687 291.16052,257.78062 291.83052,256.97937 C 292.50052,256.17812 293.02302,255.30187 293.40052,254.34937 L 296.057,248.29218 L 288.826,248.29187 z M 302.037,248.29218 L 300.49302,251.76562 C 300.20802,252.33562 299.95052,252.92187 299.71927,253.52312 C 299.48802,254.12437 299.36427,254.74062 299.35052,255.37187 C 299.36552,256.22812 299.63677,256.91937 300.16177,257.44562 C 300.68802,257.97062 301.37927,258.24187 302.23552,258.25687 C 303.36302,258.20812 304.26427,257.79312 304.94052,257.00937 C 305.61677,256.22562 306.15802,255.35937 306.56302,254.40937 L 309.297,248.29187 L 302.037,248.29218 z M 317.758,248.29218 C 317.188,249.39218 316.52177,250.40812 315.75927,251.34437 L 317.86302,253.14812 C 319.35552,251.74562 320.63825,250.12843 321.712,248.29218 L 317.758,248.29218 z M 365.526,264.56818 L 369.673,264.56818 L 369.67302,245.63418 L 365.52552,245.63418 L 365.526,264.56818 z M 373.353,248.29218 C 373.4555,248.70593 373.66427,249.06937 373.97927,249.38312 C 374.42552,249.83062 374.97427,250.06312 375.62427,250.08187 C 376.27427,250.06312 376.82177,249.83062 377.26927,249.38312 C 377.58302,249.06937 377.7915,248.70718 377.894,248.29218 L 373.353,248.29218 z M 320.367,262.74418 C 320.537,262.55168 320.70427,262.35937 320.86802,262.16437 L 319.66677,260.36062 C 318.79677,261.24062 317.86925,262.03268 316.888,262.74518 L 320.367,262.74418 z M 344.826,262.74518 C 345.7935,261.71393 346.30177,260.35812 346.35302,258.67687 C 346.29302,256.68187 345.58677,255.14312 344.23427,254.06437 C 342.88177,252.98437 341.24427,252.43812 339.32052,252.42562 C 337.39427,252.43437 335.74677,252.97312 334.37677,254.04187 C 333.00677,255.10937 332.29052,256.65437 332.22802,258.67687 C 332.28052,260.35812 332.79675,261.71393 333.778,262.74518 L 344.826,262.74518 z M 353.386,264.56818 L 353.38552,258.49687 C 353.37052,257.75312 353.52052,257.12187 353.83552,256.60312 C 354.15177,256.08437 354.72302,255.81437 355.54927,255.79187 C 356.36552,255.81562 356.89677,256.08312 357.14177,256.59562 C 357.38677,257.10812 357.49802,257.72187 357.47177,258.43687 L 357.472,264.56818 L 361.619,264.56818 L 361.61927,257.29437 C 361.62677,255.80562 361.26802,254.63687 360.54552,253.78562 C 359.82302,252.93562 358.69802,252.50312 357.17177,252.48562 C 356.36302,252.47687 355.65177,252.61562 355.03802,252.89937 C 354.42427,253.18312 353.89302,253.66687 353.44552,254.34937 L 353.38552,254.34937 L 353.38552,252.84687 L 349.23802,252.84687 L 349.238,264.56818 L 353.386,264.56818 z M 373.581,264.56818 L 377.668,264.56818 L 377.66802,252.84687 L 373.58052,252.84687 L 373.581,264.56818 z M 385.482,264.56818 L 385.48177,258.49687 C 385.46677,257.75312 385.61677,257.12187 385.93177,256.60312 C 386.24802,256.08437 386.81927,255.81437 387.64552,255.79187 C 388.40677,255.81187 388.91177,256.05812 389.16302,256.52812 C 389.41302,256.99937 389.52802,257.57562 389.50802,258.25687 L 389.508,264.56818 L 393.656,264.56818 L 393.65552,257.29437 C 393.66177,255.80562 393.30427,254.63687 392.58177,253.78562 C 391.85802,252.93562 390.73427,252.50312 389.20802,252.48562 C 388.55677,252.51437 387.89052,252.72812 387.20927,253.12437 C 386.52802,253.52187 385.95177,253.93062 385.48177,254.34937 L 385.48177,252.84687 L 381.27427,252.84687 L 381.274,264.56818 L 385.482,264.56818 z M 408.312,262.74518 C 408.72075,262.21143 409.02427,261.57687 409.22302,260.84062 L 405.25552,260.84062 C 405.04177,261.20187 404.76302,261.47187 404.42177,261.65312 C 404.08052,261.83312 403.69677,261.92312 403.27302,261.92312 C 402.44802,261.92312 401.79802,261.71312 401.31927,261.29187 C 400.84052,260.87062 400.61052,260.24062 400.62802,259.39812 L 409.34302,259.39812 C 409.35552,257.26687 408.84927,255.57937 407.82552,254.33437 C 406.80052,253.09062 405.18302,252.45312 402.97177,252.42562 C 401.04677,252.44562 399.50177,253.00687 398.33677,254.10937 C 397.17052,255.21062 396.57177,256.73312 396.54052,258.67687 C 396.57427,260.36812 397.02725,261.72143 397.901,262.74518 L 408.312,262.74518 z M 405.55677,256.99437 L 400.74802,256.99437 C 400.88052,256.38812 401.17177,255.91687 401.61927,255.58187 C 402.06802,255.24562 402.59802,255.07562 403.21177,255.07062 C 403.77177,255.08312 404.27552,255.26812 404.72177,255.62687 C 405.16927,255.98437 405.44802,256.44062 405.55677,256.99437 z M 341.96552,258.67687 C 341.95302,259.47187 341.70677,260.10687 341.22927,260.58562 C 340.75052,261.06437 340.11427,261.30937 339.32052,261.32187 C 338.52427,261.30937 337.87802,261.06437 337.38177,260.58562 C 336.88677,260.10687 336.63052,259.47187 336.61552,258.67687 C 336.63052,257.88312 336.88677,257.24687 337.38177,256.76937 C 337.87802,256.29062 338.52427,256.04562 339.32052,256.03312 C 340.11427,256.04562 340.75052,256.29062 341.22927,256.76937 C 341.70677,257.24687 341.95302,257.88312 341.96552,258.67687 M 277.413,248.29218 C 277.33925,247.51968 277.29927,246.73437 277.29177,245.93437 C 277.26302,241.21812 277.93552,236.86687 279.31177,232.88062 C 280.68677,228.89312 282.94052,225.68187 286.07177,223.24562 C 289.20427,220.80812 293.38927,219.55562 298.62927,219.48687 C 302.60177,219.50937 306.19052,220.34687 309.39677,221.99687 C 312.60427,223.64687 315.15552,225.97437 317.05302,228.97937 C 318.95052,231.98562 319.92177,235.53312 319.96677,239.62312 C 319.95302,241.67812 319.57427,243.74437 318.83177,245.82187 C 318.52302,246.68687 318.1655,247.50843 317.758,248.29218 L 321.712,248.29218 C 322.11325,247.60218 322.48677,246.88562 322.82927,246.13687 C 324.09052,243.39062 324.73927,240.61937 324.77552,237.82062 C 324.71802,232.85312 323.53052,228.60187 321.21302,225.06562 C 318.89677,221.53062 315.79427,218.81937 311.90802,216.93437 C 308.02177,215.04812 303.69552,214.09562 298.93052,214.07812 C 293.19302,214.13062 288.11802,215.44187 283.70802,218.01187 C 279.29677,220.58187 275.83552,224.09687 273.32052,228.55687 C 270.80677,233.01687 269.52552,238.10812 269.47927,243.83062 C 269.49677,245.36937 269.61225,246.85468 269.826,248.29218 L 277.413,248.29218 z M 296.057,248.29218 L 302.83677,232.83187 C 303.18427,232.10812 303.49677,231.35937 303.77552,230.58437 C 304.05552,229.80937 304.20302,229.01562 304.21927,228.20312 C 304.20427,227.34687 303.93427,226.65562 303.40802,226.12937 C 302.88177,225.60312 302.19052,225.33312 301.33427,225.31812 C 300.33177,225.33687 299.54177,225.62937 298.96802,226.19687 C 298.39302,226.76437 297.91927,227.49312 297.54802,228.38312 L 288.826,248.29218 L 296.057,248.29218 z M 309.297,248.29218 L 310.35052,245.93437 C 310.69677,245.21187 311.00927,244.46312 311.28927,243.68812 C 311.56802,242.91312 311.71677,242.11937 311.73177,241.30687 C 311.71677,240.45062 311.44677,239.75812 310.92052,239.23312 C 310.39552,238.70687 309.70427,238.43562 308.84802,238.42062 C 307.84427,238.44437 307.05552,238.74437 306.48052,239.32312 C 305.90552,239.90062 305.43302,240.62312 305.06052,241.48687 L 302.037,248.29218 L 309.297,248.29218 z M 377.894,248.29218 C 377.93775,248.11593 377.96302,247.93062 377.96802,247.73812 C 377.94927,247.09062 377.71677,246.55187 377.26927,246.12312 C 376.82177,245.69312 376.27427,245.47062 375.62427,245.45312 C 374.97427,245.47062 374.42552,245.69312 373.97927,246.12312 C 373.53177,246.55187 373.29927,247.09062 373.28052,247.73812 C 373.28552,247.93062 373.3105,248.11718 373.353,248.29218 L 377.894,248.29218 z M 398.70427,234.69437 C 398.71802,232.58937 398.22427,230.90937 397.22427,229.65312 C 396.22427,228.39687 394.63302,227.75312 392.45302,227.72187 C 390.52677,227.74437 388.97177,228.31562 387.78802,229.43562 C 386.60427,230.55437 385.99677,232.08687 385.96177,234.03312 C 386.00427,236.05312 386.65552,237.58812 387.91552,238.63937 C 389.17552,239.68937 390.78802,240.21812 392.75427,240.22437 C 394.11302,240.22562 395.33177,239.89312 396.41302,239.22562 C 397.49302,238.55812 398.21677,237.54812 398.58427,236.19687 L 394.73802,236.19687 C 394.52302,236.55812 394.24552,236.82812 393.90302,237.00937 C 393.56177,237.18937 393.17802,237.27937 392.75427,237.27937 C 391.92927,237.27687 391.27927,237.05562 390.80052,236.61812 C 390.32302,236.17937 390.09177,235.53812 390.10927,234.69437 L 398.70427,234.69437 z M 369.91427,223.15437 C 369.89552,222.50687 369.66302,221.96812 369.21552,221.53937 C 368.76802,221.10937 368.21927,220.88562 367.57052,220.86937 C 366.92052,220.88562 366.37177,221.10937 365.92427,221.53937 C 365.47677,221.96812 365.24427,222.50687 365.22677,223.15437 C 365.24427,223.80437 365.47677,224.35187 365.92427,224.79937 C 366.37177,225.24687 366.92052,225.47937 367.57052,225.49812 C 368.21927,225.47937 368.76802,225.24687 369.21552,224.79937 C 369.66302,224.35187 369.89552,223.80437 369.91427,223.15437 z M 383.37802,235.83687 C 383.31302,234.46687 382.85552,233.56562 382.00677,233.13437 C 381.15802,232.70187 380.30802,232.41937 379.45927,232.28812 C 378.61052,232.15687 378.15302,231.85687 378.08927,231.38812 C 378.11302,231.09312 378.27427,230.88812 378.56927,230.77312 C 378.86552,230.65812 379.14552,230.60187 379.41052,230.60687 C 379.80427,230.60687 380.18927,230.65187 380.56802,230.74312 C 380.94552,230.83312 381.30177,230.96812 381.63427,231.14812 L 383.01677,228.50312 C 381.81552,227.97312 380.55177,227.71187 379.23052,227.72187 C 377.90802,227.72062 376.72052,228.06937 375.66927,228.76687 C 374.61802,229.46437 374.06052,230.51812 374.00177,231.92937 C 374.06552,233.23687 374.51802,234.08812 375.35677,234.48312 C 376.19552,234.87812 377.03552,235.14562 377.87427,235.28687 C 378.71427,235.42812 379.16552,235.77187 379.23052,236.31687 C 379.21177,236.64187 379.06802,236.86437 378.80177,236.98562 C 378.53552,237.10687 378.25802,237.16562 377.96802,237.15937 C 377.38677,237.15062 376.80552,237.03312 376.22552,236.80562 C 375.64427,236.57937 375.12302,236.29687 374.66177,235.95687 L 373.15927,238.90187 C 373.88302,239.32562 374.64427,239.65062 375.44427,239.87937 C 376.24302,240.10687 377.06427,240.22187 377.90802,240.22437 C 379.31927,240.23312 380.56927,239.88562 381.65677,239.18062 C 382.74552,238.47437 383.31927,237.36062 383.37802,235.83687 z M 365.52552,239.92437 L 369.67302,239.92437 L 369.67302,228.26312 L 365.52552,228.26312 L 365.52552,239.92437 z M 362.22052,234.69437 C 362.22677,232.56312 361.70302,230.87562 360.65052,229.63062 C 359.59677,228.38562 357.97677,227.74937 355.78927,227.72187 C 353.86427,227.74437 352.31927,228.31562 351.15427,229.43562 C 349.98802,230.55437 349.38927,232.08687 349.35802,234.03312 C 349.39802,236.05312 350.03927,237.58812 351.28177,238.63937 C 352.52427,239.68937 354.12677,240.21812 356.09052,240.22437 C 357.45677,240.22937 358.70552,239.90437 359.83927,239.24812 C 360.97177,238.59187 361.72677,237.57437 362.10052,236.19687 L 358.07302,236.19687 C 357.85927,236.55812 357.58177,236.82812 357.23927,237.00937 C 356.89802,237.18937 356.51427,237.27937 356.09052,237.27937 C 355.26552,237.27687 354.61552,237.05562 354.13677,236.61812 C 353.65802,236.17937 353.42802,235.53812 353.44552,234.69437 L 362.22052,234.69437 z M 346.35302,239.92437 L 346.35302,232.71062 C 346.35802,231.26937 346.00177,230.09562 345.28552,229.18687 C 344.56927,228.27937 343.46302,227.81062 341.96552,227.78187 C 340.39302,227.79187 339.15052,228.43312 338.23927,229.70562 L 338.17802,229.70562 L 338.17802,220.32937 L 334.03177,220.32937 L 334.03177,239.92437 L 338.17802,239.92437 L 338.17802,233.91312 C 338.16677,233.19062 338.32552,232.54687 338.65177,231.98187 C 338.97927,231.41687 339.54177,231.11937 340.34177,231.08812 C 341.15677,231.12312 341.67677,231.42937 341.90427,232.00437 C 342.13302,232.58062 342.23302,233.21687 342.20552,233.91312 L 342.20552,239.92437 L 346.35302,239.92437 z M 395.03802,232.29062 L 390.22927,232.29062 C 390.36302,231.68687 390.65302,231.22562 391.10177,230.90812 C 391.54927,230.58937 392.08052,230.42937 392.69427,230.42687 C 393.25427,230.43687 393.75677,230.61187 394.20427,230.95312 C 394.65052,231.29312 394.92927,231.73937 395.03802,232.29062 z M 358.37427,232.29062 L 353.56552,232.29062 C 353.69802,231.68687 353.98927,231.22562 354.43677,230.90812 C 354.88552,230.58937 355.41552,230.42937 356.03052,230.42687 C 356.58927,230.43687 357.09302,230.61187 357.53927,230.95312 C 357.98677,231.29312 358.26552,231.73937 358.37427,232.29062"
         id="path959"
         style="fill:#c8c7c8;fill-opacity:1;fill-rule:evenodd;stroke:none" />
    </g>
  </g>
</svg>
